#!OML:ASF X:\für Bonn\!DataBase\2005_08_12_Daniel\c3d\Daniel.ASF
:FULLY-SPECIFIED
:DEGREES
62
root -3.77249 12.1604 -1.0501 167.263 -88.9542 -187.581
lowerback 39.5367 -2.24882 2.1809
upperback 2.57921 -2.94378 -2.52805
thorax -16.8919 -1.70508 -2.49554
lowerneck 6.09903 2.29697 -1.90237
upperneck -0.189308 2.90987 0.537723
head -1.11299 1.43749 0.403238
rclavicle 2.6339e-015 5.96354e-015
rhumerus 70.9707 -15.7511 -160.889
rradius 8.99647
rwrist 128.074
rhand -18.3839 11.7403
rfingers 7.12502
rthumb 7.89982 -18.0921
lclavicle 2.6339e-015 5.96354e-015
lhumerus 63.0009 13.4485 119.062
lradius 10.0351
lwrist -96.0449
lhand -16.9246 0.62519
lfingers 7.12502
lthumb 9.30806 30.3997
rfemur -32.9646 -32.4684 -6.30848
rtibia 107.886
rfoot 342.944 32.9132
rtoes -6.92999
lfemur -217.371 157.044 -179.559
ltibia 107.739
lfoot -23.2268 -33.7088
ltoes 4.30491
63
root -3.76161 11.9742 -1.05696 163.439 -88.9876 -184.035
lowerback 39.9894 -2.27258 2.21246
upperback 2.67372 -2.96732 -2.51339
thorax -16.9431 -1.72122 -2.47333
lowerneck 6.04018 2.28964 -1.82303
upperneck -0.207821 2.90643 0.480307
head -1.10616 1.43703 0.372836
rclavicle -3.19049e-014 5.96354e-015
rhumerus 71.0932 -15.4265 -160.761
rradius 9.004
rwrist 127.978
rhand -18.4445 11.6669
rfingers 7.12502
rthumb 7.8413 -18.1677
lclavicle -3.19049e-014 5.96354e-015
lhumerus 62.9768 13.1224 118.425
lradius 10.1253
lwrist -95.3851
lhand -16.9591 0.55143
lfingers 7.12502
lthumb 9.2748 30.3274
rfemur -33.5186 -33.5352 -7.33803
rtibia 109.737
rfoot 343.02 34.0024
rtoes -7.14973
lfemur -218.286 155.965 -178.602
ltibia 109.604
lfoot -22.8141 -34.8035
ltoes 4.39473
64
root -3.75167 11.7853 -1.06428 160.706 -89.0212 -181.597
lowerback 40.452 -2.27958 2.21816
upperback 2.77001 -2.98052 -2.49336
thorax -16.9911 -1.73131 -2.43614
lowerneck 5.98576 2.28211 -1.78169
upperneck -0.225469 2.90004 0.43458
head -1.1007 1.43491 0.35246
rclavicle -6.5102e-015 -1.66979e-014
rhumerus 71.2758 -15.0817 -160.622
rradius 8.96978
rwrist 127.883
rhand -18.4644 11.5807
rfingers 7.12502
rthumb 7.82214 -18.2546
lclavicle -6.5102e-015 -1.66979e-014
lhumerus 62.9476 12.7162 117.623
lradius 10.1811
lwrist -94.5276
lhand -16.9465 0.527823
lfingers 7.12502
lthumb 9.28696 30.3033
rfemur -33.9989 -34.6994 -8.52974
rtibia 111.594
rfoot 343.103 35.1925
rtoes -7.53274
lfemur -219.152 154.837 -177.6
ltibia 111.45
lfoot -22.3874 -35.968
ltoes 4.52342
65
root -3.74153 11.5948 -1.07198 157.369 -89.0467 -178.561
lowerback 40.931 -2.28755 2.2145
upperback 2.86283 -2.9983 -2.46713
thorax -17.046 -1.7427 -2.38437
lowerneck 5.89833 2.2843 -1.75156
upperneck -0.210018 2.90663 0.403948
head -1.07968 1.43887 0.338794
rclavicle 8.89561e-015 -7.15625e-015
rhumerus 71.4362 -14.7121 -160.491
rradius 8.93449
rwrist 127.731
rhand -18.4069 11.5099
rfingers 7.12502
rthumb 7.87761 -18.3233
lclavicle 8.89561e-015 -7.15625e-015
lhumerus 62.924 12.2629 116.671
lradius 10.2119
lwrist -93.4843
lhand -16.9175 0.506555
lfingers 7.12502
lthumb 9.31493 30.2808
rfemur -34.4084 -35.9451 -9.83717
rtibia 113.441
rfoot 343.273 36.4379
rtoes -7.78273
lfemur -219.967 153.617 -176.508
ltibia 113.278
lfoot -21.9642 -37.1468
ltoes 4.67387
66
root -3.73146 11.401 -1.07885 152.81 -89.0696 -174.319
lowerback 41.412 -2.31317 2.25647
upperback 2.96055 -3.02161 -2.45874
thorax -17.0966 -1.76039 -2.37378
lowerneck 5.8608 2.28164 -1.67551
upperneck -0.229632 2.90844 0.350606
head -1.07713 1.44083 0.309906
rclavicle 2.89232e-014 3.97569e-015
rhumerus 71.6255 -14.3629 -160.381
rradius 8.87832
rwrist 127.526
rhand -18.2968 11.4264
rfingers 7.12502
rthumb 7.98389 -18.4028
lclavicle 2.89232e-014 3.97569e-015
lhumerus 62.9136 11.7635 115.639
lradius 10.2228
lwrist -92.3178
lhand -16.8045 0.556531
lfingers 7.12502
lthumb 9.42393 30.3258
rfemur -34.7059 -37.3401 -11.3266
rtibia 115.284
rfoot 343.574 37.8334
rtoes -8.02922
lfemur -220.737 152.326 -175.305
ltibia 115.097
lfoot -21.4922 -38.4507
ltoes 4.82398
67
root -3.72225 11.2067 -1.08613 149.358 -89.0969 -171.189
lowerback 41.8936 -2.3216 2.26449
upperback 3.05551 -3.03631 -2.43773
thorax -17.1451 -1.77187 -2.33534
lowerneck 5.80704 2.27414 -1.65817
upperneck -0.224324 2.90028 0.31737
head -1.06518 1.43741 0.297601
rclavicle 5.1684e-015 -3.97569e-016
rhumerus 71.8443 -14.0337 -160.236
rradius 8.74289
rwrist 127.201
rhand -18.2145 11.341
rfingers 7.12502
rthumb 8.06334 -18.4852
lclavicle 5.1684e-015 -3.97569e-016
lhumerus 62.9142 11.255 114.592
lradius 10.2122
lwrist -91.0776
lhand -16.7381 0.63103
lfingers 7.12502
lthumb 9.48804 30.3974
rfemur -34.8631 -38.8788 -13.0517
rtibia 117.122
rfoot 343.852 39.2984
rtoes -8.26261
lfemur -221.455 150.979 -174.047
ltibia 116.896
lfoot -20.9892 -39.7947
ltoes 5.01369
68
root -3.7126 11.0101 -1.09323 144.587 -89.1088 -166.731
lowerback 42.3828 -2.33508 2.28489
upperback 3.14249 -3.049 -2.40524
thorax -17.2027 -1.783 -2.29128
lowerneck 5.75998 2.2763 -1.62904
upperneck -0.221699 2.90557 0.281639
head -1.05514 1.44072 0.282121
rclavicle -4.17448e-015 -3.97569e-015
rhumerus 72.0052 -13.7402 -160.06
rradius 8.66282
rwrist 126.869
rhand -18.1094 11.3009
rfingers 7.12502
rthumb 8.16474 -18.5214
lclavicle -4.17448e-015 -3.97569e-015
lhumerus 62.9423 10.8117 113.676
lradius 10.2206
lwrist -89.9071
lhand -16.6233 0.70697
lfingers 7.12502
lthumb 9.59879 30.4683
rfemur -34.9239 -40.525 -14.9481
rtibia 118.95
rfoot 344.274 40.8994
rtoes -8.46105
lfemur -222.114 149.507 -172.64
ltibia 118.685
lfoot -20.4686 -41.2452
ltoes 5.24096
69
root -3.70415 10.8124 -1.09979 140.352 -89.1226 -162.838
lowerback 42.8981 -2.353 2.30507
upperback 3.22994 -3.071 -2.3883
thorax -17.2675 -1.79889 -2.25917
lowerneck 5.70872 2.27684 -1.57201
upperneck -0.219491 2.91045 0.234171
head -1.04381 1.44397 0.258464
rclavicle -1.09332e-015 -1.31198e-014
rhumerus 72.2116 -13.4523 -159.91
rradius 8.50389
rwrist 126.517
rhand -18.0198 11.2271
rfingers 7.12502
rthumb 8.25125 -18.5917
lclavicle -1.09332e-015 -1.31198e-014
lhumerus 62.9931 10.4348 112.888
lradius 10.2444
lwrist -88.8995
lhand -16.5577 0.775128
lfingers 7.12502
lthumb 9.66214 30.5335
rfemur -34.7346 -42.3063 -17.1703
rtibia 120.756
rfoot 344.684 42.6164
rtoes -8.57874
lfemur -222.654 147.944 -171.106
ltibia 120.448
lfoot -19.8958 -42.7854
ltoes 5.46454
70
root -3.69515 10.6154 -1.10577 136.026 -89.1327 -158.847
lowerback 43.4193 -2.37081 2.33549
upperback 3.30614 -3.08655 -2.3685
thorax -17.3449 -1.81257 -2.23225
lowerneck 5.67783 2.2752 -1.54475
upperneck -0.21739 2.91021 0.203483
head -1.03681 1.44437 0.244848
rclavicle 2.5842e-015 -1.51076e-014
rhumerus 72.4023 -13.2149 -159.733
rradius 8.36003
rwrist 126.104
rhand -17.9599 11.147
rfingers 7.12502
rthumb 8.30903 -18.6696
lclavicle 2.5842e-015 -1.51076e-014
lhumerus 63.0196 10.0604 112.108
lradius 10.2712
lwrist -87.8259
lhand -16.4826 0.824438
lfingers 7.12502
lthumb 9.73453 30.5795
rfemur -34.3502 -44.2082 -19.682
rtibia 122.535
rfoot 345.29 44.4239
rtoes -8.67431
lfemur -223.128 146.291 -169.458
ltibia 122.173
lfoot -19.2282 -44.4099
ltoes 5.75987
71
root -3.687 10.4204 -1.11102 130.822 -89.1467 -154.005
lowerback 43.9565 -2.40137 2.38224
upperback 3.39837 -3.11241 -2.35228
thorax -17.4058 -1.83244 -2.21214
lowerneck 5.61878 2.27416 -1.51412
upperneck -0.193696 2.91145 0.171241
head -1.01807 1.44542 0.230612
rclavicle -2.02263e-014 7.55382e-015
rhumerus 72.5793 -13.001 -159.546
rradius 8.23782
rwrist 125.715
rhand -17.999 11.1382
rfingers 7.12502
rthumb 8.27126 -18.6799
lclavicle -2.02263e-014 7.55382e-015
lhumerus 63.1283 9.81284 111.629
lradius 10.2908
lwrist -87.1071
lhand -16.4676 0.8409
lfingers 7.12502
lthumb 9.74903 30.5953
rfemur -33.628 -46.2006 -22.5765
rtibia 124.269
rfoot 345.789 46.3481
rtoes -8.84879
lfemur -223.45 144.543 -167.63
ltibia 123.858
lfoot -18.5784 -46.1015
ltoes 6.02416
72
root -3.67972 10.2281 -1.11691 126.278 -89.1456 -149.839
lowerback 44.5255 -2.42371 2.4248
upperback 3.46833 -3.12908 -2.33975
thorax -17.5007 -1.84816 -2.1978
lowerneck 5.60038 2.27232 -1.46268
upperneck -0.19894 2.91193 0.123081
head -1.01484 1.44642 0.207434
rclavicle -1.72446e-014 1.31198e-014
rhumerus 72.7509 -12.8607 -159.349
rradius 8.1163
rwrist 125.328
rhand -18.1083 11.0742
rfingers 7.12502
rthumb 8.16585 -18.748
lclavicle -1.72446e-014 1.31198e-014
lhumerus 63.2382 9.5574 111.126
lradius 10.2353
lwrist -86.3657
lhand -16.4733 0.90466
lfingers 7.12502
lthumb 9.74356 30.6593
rfemur -32.5693 -48.245 -25.8611
rtibia 125.95
rfoot 346.474 48.3759
rtoes -8.79503
lfemur -223.587 142.659 -165.585
ltibia 125.485
lfoot -17.7404 -47.9473
ltoes 6.4589
73
root -3.67279 10.0389 -1.12193 121.625 -89.1484 -145.562
lowerback 45.0805 -2.4453 2.45566
upperback 3.54759 -3.14834 -2.3129
thorax -17.5745 -1.86409 -2.16009
lowerneck 5.53761 2.27222 -1.43516
upperneck -0.168577 2.91408 0.0852252
head -0.993357 1.44795 0.192088
rclavicle -1.73937e-015 -1.23246e-014
rhumerus 72.8934 -12.7031 -159.128
rradius 8.00331
rwrist 124.937
rhand -18.2936 11.0168
rfingers 7.12502
rthumb 7.98694 -18.8123
lclavicle -1.73937e-015 -1.23246e-014
lhumerus 63.3502 9.29719 110.566
lradius 10.2247
lwrist -85.5463
lhand -16.5557 0.951302
lfingers 7.12502
lthumb 9.66403 30.7096
rfemur -31.1203 -50.3259 -29.6063
rtibia 127.583
rfoot 347.187 50.4844
rtoes -8.66796
lfemur -223.57 140.708 -163.381
ltibia 127.06
lfoot -16.8639 -49.8401
ltoes 6.87366
74
root -3.66642 9.84776 -1.12721 117.228 -89.1522 -141.561
lowerback 45.6539 -2.47263 2.49758
upperback 3.61939 -3.17272 -2.30558
thorax -17.662 -1.88353 -2.14699
lowerneck 5.52781 2.26942 -1.38311
upperneck -0.173334 2.91312 0.0390868
head -0.991488 1.44815 0.169407
rclavicle 9.93923e-016 -3.18055e-015
rhumerus 73.0699 -12.5913 -158.922
rradius 7.85213
rwrist 124.609
rhand -18.5439 10.9301
rfingers 7.12502
rthumb 7.74537 -18.908
lclavicle 9.93923e-016 -3.18055e-015
lhumerus 63.4046 9.00659 109.929
lradius 10.2592
lwrist -84.6996
lhand -16.685 0.960118
lfingers 7.12502
lthumb 9.53932 30.7242
rfemur -29.1437 -52.4326 -34.002
rtibia 129.196
rfoot 348.083 52.7679
rtoes -8.44921
lfemur -223.367 138.641 -160.899
ltibia 128.624
lfoot -15.8665 -51.8636
ltoes 7.3222
75
root -3.65992 9.64997 -1.1324 112.72 -89.165 -137.458
lowerback 46.1999 -2.49602 2.5388
upperback 3.70542 -3.19548 -2.30766
thorax -17.7204 -1.90292 -2.14562
lowerneck 5.51968 2.2667 -1.30543
upperneck -0.168798 2.91413 0.00740486
head -0.986828 1.44901 0.146923
rclavicle 3.72721e-015 1.70955e-014
rhumerus 73.2265 -12.494 -158.721
rradius 7.77094
rwrist 124.283
rhand -18.8227 10.9043
rfingers 7.12502
rthumb 7.47629 -18.9436
lclavicle 3.72721e-015 1.70955e-014
lhumerus 63.4841 8.73406 109.384
lradius 10.2737
lwrist -83.9526
lhand -16.866 0.981232
lfingers 7.12502
lthumb 9.3646 30.7532
rfemur -26.4773 -54.6131 -39.3099
rtibia 130.847
rfoot 348.987 55.2025
rtoes -8.27438
lfemur -222.974 136.415 -158.063
ltibia 130.213
lfoot -14.5787 -54.0622
ltoes 7.86488
76
root -3.65509 9.45086 -1.13746 108.207 -89.1586 -133.384
lowerback 46.7626 -2.52248 2.58228
upperback 3.79535 -3.21986 -2.30083
thorax -17.7746 -1.92341 -2.13395
lowerneck 5.53545 2.27013 -1.2516
upperneck -0.176727 2.92077 -0.0489888
head -0.990212 1.45309 0.120309
rclavicle 7.8023e-015 -2.78299e-014
rhumerus 73.3823 -12.3917 -158.513
rradius 7.63759
rwrist 123.987
rhand -19.1417 10.822
rfingers 7.12502
rthumb 7.16835 -19.0366
lclavicle 7.8023e-015 -2.78299e-014
lhumerus 63.5891 8.51479 108.88
lradius 10.241
lwrist -83.2805
lhand -17.0446 0.987606
lfingers 7.12502
lthumb 9.19226 30.7673
rfemur -22.9981 -56.6864 -45.5309
rtibia 132.49
rfoot 349.678 57.7493
rtoes -8.01764
lfemur -222.243 134.072 -154.776
ltibia 131.777
lfoot -13.0745 -56.4038
ltoes 8.5546
